<svg width="600" height="600" viewBox="0 0 600 600" fill="none" xmlns="http://www.w3.org/2000/svg">
<rect width="600" height="600" fill="white"/>
<path d="M264.012 138.873H291.003L292.639 139.691L295.093 156.867H310.633L316.358 165.046L317.176 166.682L320.448 165.864L326.173 160.138L330.263 153.595L338.442 156.049L348.256 159.321L370.34 160.138L373.611 164.228L383.426 184.676L389.97 194.49L400.602 207.577L407.146 220.663L410.417 231.296H419.414L431.683 229.66L443.951 230.478L444.769 231.296L443.951 244.383L440.68 263.194L434.954 269.738L428.411 276.281L421.868 282.006L418.596 286.096H416.96L415.325 289.367L404.692 299.182L402.238 303.272L403.056 311.451L406.328 328.627L407.146 335.17V348.256L402.238 354.8L394.059 361.343L390.787 365.432L389.152 368.704L387.516 376.065L384.244 382.608L376.065 398.149L371.158 405.51L365.432 412.053L358.889 417.778L350.71 424.322L344.167 426.775H330.263L323.719 422.686L318.812 415.325L317.176 396.513L313.087 384.244L301.636 362.161L300 356.435L300.818 345.803L304.09 328.627L304.907 324.537V317.176L300.818 308.997L292.639 297.546L289.367 294.275V266.466L288.549 263.194L279.552 260.741L269.738 255.833L260.741 257.469L242.747 263.194L230.478 264.83H224.753L218.21 262.376L204.305 252.562L196.126 246.836L191.219 238.657L190.401 235.386V219.845L193.672 190.401L195.308 183.04L198.58 178.95L210.031 169.953L217.392 163.41L220.663 160.138L224.753 153.595L235.386 148.688L254.197 141.327L264.012 138.873ZM339.259 172.407L338.442 186.311H380.155L378.519 181.404L374.429 173.225L373.611 172.407H339.259ZM280.37 253.38L281.188 255.833L286.914 258.287V256.651L282.006 253.38H280.37Z" fill="#2F443B"/>
<path d="M285.278 36.6349H307.361L329.445 39.0886L349.892 43.1781L366.25 48.0855L379.337 52.993L392.423 59.5362L403.874 66.0794L417.778 75.8943L425.139 81.6196L434.954 90.6166L439.044 93.8882L444.769 100.431L450.494 106.157L461.945 121.697L470.124 134.783L479.121 151.141L487.3 171.589L492.208 186.311L497.115 208.395L498.751 216.574L499.569 225.571V277.099L497.115 306.543L493.843 331.898L487.3 367.068L479.939 396.513L472.578 420.232L466.852 436.59L458.673 456.22L451.312 472.578L444.769 484.846L441.497 491.39L436.59 497.115L433.318 498.751H425.957L420.232 494.661L417.778 489.754L418.596 482.393L428.411 464.399L437.408 445.587L447.223 421.05L456.22 394.059L463.581 366.25L469.306 335.17L472.578 313.086L475.032 285.278L476.667 260.741V233.75L474.214 214.12L470.124 196.944L465.217 180.586L457.856 163.41L448.041 144.598L439.044 131.512L432.501 123.333L422.686 111.882L416.96 106.157L407.963 98.7956L398.149 91.4345L380.973 80.8017L362.161 71.8048L347.438 66.8973L330.262 62.8078L313.904 60.3541L304.09 59.5362H286.096L267.284 61.9899L249.29 66.0794L232.114 71.8048L206.759 84.0733L194.49 92.2524L183.858 100.431L173.225 110.246L169.135 114.336L160.956 123.333L150.324 138.873L143.78 149.506L137.237 163.41L130.694 181.404L126.604 198.58L124.151 219.028L123.333 233.75V258.287L120.879 264.012L116.789 267.284L114.336 268.102H108.61L102.067 264.012L100.431 260.741V214.938L103.703 192.037L109.428 169.135L115.972 151.959L124.969 133.965L136.419 115.972L147.052 102.885L166.682 83.2554L178.132 74.2585L190.401 66.0794L199.398 61.172L211.666 54.6288L232.932 46.4497L255.015 40.7244L277.099 37.4528L285.278 36.6349Z" fill="#09A892"/>
<path d="M340.077 226.389L343.349 227.207L346.621 230.478L349.892 226.389H385.88L390.787 228.024L393.241 231.296L394.059 233.75L395.695 234.568V232.932L403.874 233.75L408.781 236.204L416.96 237.021L425.957 235.386L428.411 236.204L427.593 241.111L425.957 247.654L425.139 250.108L438.226 254.197L441.497 255.833L440.68 263.194L434.954 269.738L428.411 276.281L421.868 282.006L418.596 286.096H416.96L415.325 289.367L404.692 299.182L402.238 303.272L403.056 311.451L406.328 328.627L407.146 335.17V348.256L402.238 354.8L394.059 361.343L390.787 365.432L389.152 368.704L387.516 376.065L384.244 382.608L376.065 398.149L371.158 405.51L365.432 412.053L358.889 417.778L350.71 424.321L344.167 426.775H330.263L323.719 422.686L318.812 415.325L317.176 396.513L313.087 384.244L301.636 362.161L300 356.435L300.818 345.803L303.272 335.17L312.269 337.624L317.994 340.077L323.719 340.895L335.17 335.17L340.895 328.627L347.438 321.266L352.346 313.087V308.179L343.349 307.361H331.898L321.266 308.179L320.448 306.543L305.725 305.725L299.182 300.818L297.546 294.275L294.275 291.003H296.728L298.364 289.367L305.725 290.185L309.815 292.639L313.087 291.821L314.722 289.367V284.46H313.087V281.188H298.364L292.639 279.552L293.457 277.099H295.093L295.911 273.827L301.636 270.556L303.272 269.738V260.741L307.361 243.565L310.633 238.657L314.722 234.568L318.812 237.839L322.901 244.383L330.263 251.744L331.898 259.105L335.988 256.651L337.624 251.744V233.75L339.259 227.207L340.077 226.389Z" fill="#2E443B"/>
<path d="M282.824 87.3448H306.543L325.355 89.7985L342.531 93.888L358.071 99.6134L371.158 106.157L384.244 114.336L398.149 124.968L406.328 132.33L413.689 140.509L423.504 153.595L430.047 164.228L436.59 177.314L440.68 187.947L445.587 203.487V209.213L443.133 213.302L435.772 216.574L430.047 215.756L425.957 212.484L422.686 203.487L419.414 192.854L413.689 179.768L406.328 167.499L398.966 157.685L389.969 147.87L379.337 138.055L362.979 127.422L349.892 120.879L336.806 115.971L320.448 111.882L300 109.428H289.367L267.284 112.7L250.926 117.607L237.839 123.333L228.024 128.24L216.574 136.419L208.395 143.78L201.852 149.506L192.037 160.956L184.676 173.225L178.132 187.129L173.225 204.305L171.589 216.574L169.953 251.744L167.5 265.648L160.956 279.552L155.231 287.731L151.141 292.639L142.145 300L130.694 306.543L120.061 309.815H106.975L102.885 306.543L100.431 298.364L102.067 293.457L107.793 288.549L118.425 286.913L132.33 278.734L139.691 269.737L144.598 259.105L146.234 250.926L147.052 224.753L149.506 202.669L153.595 185.493L158.503 172.407L166.682 156.867L174.861 144.598L182.222 134.783L188.765 129.058L196.126 121.697L210.031 111.882L227.207 102.067L247.654 93.888L264.012 89.7985L282.824 87.3448Z" fill="#09A892"/>
<path d="M340.077 226.389L343.349 227.207L346.621 230.478L349.892 226.389H385.88L390.787 228.024L393.241 231.296L394.059 233.75L395.695 234.568V232.932L403.874 233.75L408.781 236.204L416.96 237.021L425.957 235.386L428.411 236.204L427.593 241.111L425.957 247.654L425.139 250.108L438.226 254.197L441.497 255.833L440.68 263.194L434.954 269.738L430.865 273.009H428.411L424.321 275.463L417.778 272.191V268.102L422.686 262.376L419.414 260.741L416.96 255.015H414.507V259.105L412.053 261.559H405.51L398.149 260.741L391.605 261.559L390.787 258.287L401.42 254.197L402.238 252.562L398.149 251.744L394.877 250.108L393.241 245.2V241.929L388.334 243.565L364.614 244.383L358.071 245.2L349.892 243.565L347.438 240.293V238.657H345.803L344.985 249.29V255.015V255.833H345.803V259.923L348.256 259.105L351.528 262.376L358.889 264.83L364.614 266.466L366.25 260.741L368.704 259.105H379.337L381.79 261.559L380.973 265.648L378.519 268.102L367.886 271.373H366.25L367.068 275.463L376.065 272.191L384.244 269.738H391.605L398.149 273.827L399.784 280.37L398.149 288.549L396.513 292.639L394.877 310.633L390.787 314.722L396.513 319.63L398.966 322.083L403.056 324.537L403.874 329.445L400.602 331.08H389.97L386.698 329.445L384.244 326.173L380.973 325.355L378.519 323.719L377.701 328.627L375.247 334.352H373.611L374.429 340.077L372.794 352.346L368.704 354.8L362.161 353.982L358.889 352.346L360.525 349.074L358.071 350.71H352.346L349.074 345.803H346.621L338.442 335.988L339.259 331.898L348.256 322.901L354.8 314.722L357.253 311.451L362.161 310.633L363.797 304.907L358.071 306.543L305.725 305.725L299.182 300.818L297.546 294.275L294.275 291.003H296.728L298.364 289.367L305.725 290.185L309.815 292.639L313.087 291.821L314.722 289.367V284.46H313.087V281.188H298.364L292.639 279.552L293.457 277.099H295.093L295.911 273.827L301.636 270.556L303.272 269.738V260.741L307.361 243.565L310.633 238.657L314.722 234.568L318.812 237.839L322.901 244.383L330.263 251.744L331.898 259.105L335.988 256.651L337.624 251.744V233.75L339.259 227.207L340.077 226.389Z" fill="#137E4E"/>
<path d="M433.318 300H439.044L445.587 303.272L448.041 306.543L448.859 313.904L443.951 345.803L438.226 372.793L429.229 403.874L422.686 423.504L415.324 440.68L406.328 460.309L399.784 472.578L391.605 486.482L380.155 503.658L374.429 511.019L367.068 520.016L358.071 530.649L350.71 538.01L349.074 540.464H347.438V542.1L337.624 551.915L331.08 557.64L325.355 562.547L319.63 563.365L312.269 560.911L309.815 558.458L308.997 556.822V550.279L312.269 545.371L322.083 535.556L328.627 529.831L339.259 519.198L344.985 512.655L351.528 504.476L359.707 493.843L367.886 481.575L376.883 466.852L384.244 453.766L394.059 433.318L403.056 411.235L412.053 384.244L418.596 358.889L425.139 322.083L426.775 307.361L429.229 302.454L433.318 300Z" fill="#09A892"/>
<path d="M264.012 138.873H280.37L286.096 139.691L288.549 151.141L287.732 185.493L286.914 188.765L288.549 192.037L295.093 193.673L304.907 199.398L312.269 204.305L316.358 205.941L315.54 211.666L311.451 223.117L308.997 233.75L306.543 235.386L289.367 228.024V223.117L290.185 221.481H288.549L287.732 223.935L286.914 219.028L279.552 217.392L285.278 219.845L286.096 220.663V225.571L283.642 228.024L273.827 231.296H269.738V212.484L268.92 230.478H268.102L267.284 210.848L262.376 210.031L252.562 205.941L245.2 203.487L243.565 202.669L242.747 228.842L241.929 230.478H219.845V184.676L221.481 181.404L220.663 177.314L219.845 161.774L223.935 154.413L228.025 151.959L251.744 142.145L264.012 138.873Z" fill="#95222D"/>
<path d="M280.37 138.873H291.003L292.639 139.691L295.093 156.867H310.633L316.358 165.046L317.176 166.682L320.448 165.864L326.173 160.138L330.263 153.595L338.442 156.049L348.256 159.321L370.34 160.138L373.611 164.228L383.426 184.676L389.97 194.49L400.602 207.577L406.328 218.21V223.935L404.692 225.571L394.059 226.389L387.516 224.753H345.803L341.713 220.663L337.624 212.484L333.534 211.666V238.657L331.898 248.472L327.809 247.654L326.173 244.383V210.848L318.812 210.031L317.176 208.395V205.941L308.997 203.487L305.725 201.034L298.364 196.126L290.185 192.855L286.096 193.673V180.586H286.914L287.731 149.506L286.096 139.691H280.37V138.873ZM339.259 172.407L338.442 186.311H380.155L378.519 181.404L374.429 173.225L373.611 172.407H339.259Z" fill="#2C3533"/>
<path d="M241.929 282.824H247.654L254.197 286.914L255.833 291.003V298.364L247.654 317.176L241.111 328.627L232.932 340.895L222.299 353.982L212.484 363.797L201.034 372.794L191.219 379.337L175.679 387.516L160.956 394.059L147.052 398.149L126.604 402.238L119.243 401.42L114.336 395.695L113.518 394.059V387.516L116.789 381.791L120.879 380.155L142.962 375.247L159.32 369.522L173.225 362.979L183.04 356.435L191.219 349.892L199.398 342.531L210.031 331.898L219.027 319.63L228.024 304.09L235.386 286.914L239.475 283.642L241.929 282.824Z" fill="#09A892"/>
<path d="M261.559 340.895H269.738L273.827 343.349L276.281 348.256V353.982L272.191 362.161L260.741 377.701L252.562 386.698L246.836 393.241L241.111 398.966L229.66 407.963L219.028 416.142L207.577 423.504L193.673 430.865L173.225 439.044L153.595 444.769L142.962 447.223L137.237 446.405L133.148 443.951L130.694 439.862L129.876 433.318L132.33 428.411L136.419 425.139L160.956 418.596L178.132 412.053L191.219 405.51L202.669 398.966L214.12 390.787L223.117 383.426L236.204 371.158L245.2 360.525L256.651 344.167L261.559 340.895Z" fill="#09A892"/>
<path d="M349.074 439.044L356.435 439.862L360.525 443.133L362.979 448.041L362.161 454.584L357.253 463.581L347.439 478.303L340.077 488.118L330.263 499.569L312.269 517.563L303.272 524.924L292.639 533.103L277.917 542.918L255.015 555.186L248.472 557.64L242.747 556.822L236.204 551.097L234.568 545.371L237.021 539.646L241.111 536.374L262.376 524.924L266.466 521.652L279.552 513.473L290.185 505.294L302.454 494.661L313.087 484.028L318.812 477.485L326.991 467.67L335.17 455.402L342.531 443.133L346.621 439.862L349.074 439.044Z" fill="#09A892"/>
<path d="M279.552 390.787L286.914 391.605L292.639 396.513L293.457 398.148V406.328L286.096 416.96L277.099 427.593L264.012 440.68L256.651 446.405L247.654 453.766L230.478 465.217L211.666 475.031L196.126 481.575L178.95 487.3L165.864 490.572L161.774 489.754L156.049 485.664L154.413 482.393V475.031L158.503 469.306L165.046 466.852L177.314 463.581L192.855 457.856L211.666 448.859L226.389 439.862L241.111 429.229L253.38 418.596L261.559 410.417L268.92 401.42L274.645 394.059L279.552 390.787Z" fill="#09A892"/>
<path d="M345.803 238.657H347.439L349.892 242.747L358.889 244.383L368.704 243.565L388.334 242.747L393.241 241.929L395.695 250.108L402.238 252.562L401.42 255.015L393.241 258.287H390.787L392.423 260.741L398.149 259.923L412.053 260.741L413.689 257.469L414.507 254.197L417.778 255.015L421.05 261.559L422.686 262.376L421.05 265.648L418.596 268.102L417.778 272.191L421.868 273.827L424.322 274.645L428.411 272.191H430.865L429.229 275.463L421.868 282.006L418.596 286.096H416.96L415.325 289.367L404.692 299.182L402.238 303.272L403.056 311.451L406.328 328.627L407.146 335.17V348.256L402.238 354.8L394.059 361.343L390.787 365.432L389.152 368.704L387.516 376.065L384.244 382.608L380.973 388.334L377.701 389.152L367.886 388.334L360.525 383.426L354.8 380.155L353.982 377.701V368.704L357.253 362.161L361.343 358.889L370.34 356.435H374.429L375.247 357.253H393.241L397.331 353.164L398.966 348.256V343.349L395.695 340.077L381.79 338.442H376.883H374.429L375.247 331.08L377.701 326.991L378.519 323.719L385.062 324.537L387.516 329.445L389.97 330.263H400.602L403.056 329.445L402.238 324.537L398.149 322.083V320.448L394.059 318.812L389.97 313.904L394.059 310.633L395.695 292.639L398.149 286.096L398.966 279.552L397.331 273.827L391.605 270.555H384.244L372.794 273.827L366.25 276.281V271.373L376.065 268.102H378.519L379.337 265.648H380.973V259.923H368.704L366.25 262.376L364.615 266.466L358.889 265.648L351.528 263.194L348.256 260.741L345.803 259.923L344.985 256.651L343.349 257.469L344.167 255.015V245.2L345.803 238.657Z" fill="#2E443B"/>
<path d="M302.454 431.683L308.997 432.501L313.087 434.954L315.54 437.408L316.358 439.862V445.587L310.633 454.584L300 466.852L284.46 482.393L273.009 491.39L262.376 498.751L247.654 507.748L230.478 516.745L203.487 526.56L200.216 527.377H194.49L188.765 524.924L185.493 520.834L184.676 514.291L187.947 509.384L191.219 506.93L215.756 497.933L229.66 491.39L248.472 480.757L259.105 472.578L270.555 463.581L273.009 462.763V461.127L279.552 455.402L290.185 443.951L297.546 434.954L302.454 431.683Z" fill="#09A892"/>
<path d="M195.308 271.373H204.305L209.213 274.645L211.666 279.552L210.848 286.913L204.305 300L196.126 313.086L187.947 323.719L178.132 332.716L166.682 340.895L158.503 345.803L142.145 352.346L120.061 356.435H110.246L104.521 351.528L102.885 344.167L106.157 337.624L109.428 335.17L126.604 332.716L141.327 328.627L155.231 321.265L168.317 310.633L176.497 301.636L182.222 292.639L187.129 282.824L190.401 275.463L195.308 271.373Z" fill="#09A892"/>
<path d="M219.028 162.592H219.845L221.481 180.586L222.299 184.675H220.663L219.845 230.478H241.929L242.747 201.033L244.383 202.669V230.478L241.111 231.296V232.932H237.839L239.475 235.385L241.111 241.929L243.565 237.021H245.2L247.654 241.111L251.744 243.564L254.197 247.654L255.015 250.926L253.38 254.197L241.111 255.833L239.475 259.923L237.839 262.376H225.571L220.663 258.287L217.392 256.651L210.031 251.744L209.213 250.108V235.385L210.848 232.932H219.028H219.845L191.219 231.296V235.385H190.401V219.845L193.672 190.401L195.308 183.04L198.58 178.95L210.031 169.953L217.392 163.41L219.028 162.592Z" fill="#127F4E"/>
<path d="M314.722 234.568L318.812 237.839L323.719 245.201L326.173 249.29L329.445 253.38V267.284L327.809 269.738L333.534 268.92L346.621 265.648L356.435 264.83L362.161 268.92L362.979 270.556V279.552L360.525 282.006L358.071 281.188V279.552L353.164 277.917H340.895L337.624 281.188L331.898 282.006L328.627 280.37V288.549L333.534 286.914H340.077L340.895 285.278L342.531 286.914L344.167 282.006L349.892 282.824L351.528 284.46L350.71 288.549L354.8 287.732L359.707 286.914L362.161 294.275V301.636L360.525 305.725L358.071 306.543L305.725 305.725L299.182 300.818L297.546 294.275L294.275 291.003H296.728L298.364 289.367L305.725 290.185L309.815 292.639L313.087 291.821L314.722 289.367V284.46H313.087V281.188H298.364L292.639 279.552L293.457 277.099H295.093L295.911 273.827L301.636 270.556L303.272 269.738V260.741L307.361 243.565L310.633 238.657L314.722 234.568Z" fill="#09A791"/>
<path d="M344.985 198.58H393.241L402.238 210.03L406.328 218.209V223.935L404.692 225.571L394.059 226.389L387.516 224.753H345.803L341.713 220.663L337.624 212.484L333.534 211.666V238.657L331.898 248.472L327.809 247.654L326.173 244.382V209.213L326.991 208.395H331.898L332.716 209.213H336.806L337.624 200.216L338.442 199.398L344.985 198.58Z" fill="#9A1E2C"/>
<path d="M349.892 226.389H385.88L390.787 228.024L393.241 231.296L394.059 233.75L395.695 234.568V232.932L403.874 233.75L408.781 236.204L416.96 237.021L425.957 235.386L428.411 236.204L427.593 241.111L425.957 247.654L425.139 250.108L438.226 254.197L441.497 255.833L440.68 263.194L434.954 269.738L430.865 273.009H428.411L424.321 275.463L417.778 272.191V268.102L422.686 262.376L419.414 260.741L416.96 255.015H414.507V259.105L412.053 261.559H405.51L398.149 260.741L391.605 261.559L390.787 258.287L401.42 254.197L402.238 252.562L398.149 251.744L394.877 250.108L393.241 245.2V241.929L388.334 243.565L364.614 244.383L358.071 245.2L349.892 243.565L348.256 241.111L347.438 232.114L349.892 226.389Z" fill="#09A791"/>
<path d="M262.376 143.78H285.278L286.096 144.598V193.672L282.824 196.944L273.009 204.305L268.102 207.577H261.558L255.015 204.305V150.323L255.833 145.416L262.376 143.78Z" fill="#FDDB35"/>
<path d="M330.263 153.595L338.442 156.049L348.256 159.32L370.34 160.138L373.611 164.228L383.426 184.675L389.97 194.49L392.423 198.58L389.97 199.398H344.985L338.442 200.216L337.624 209.213L336.806 210.03H332.716V206.759L334.352 205.941L335.17 185.493V178.132L333.534 172.407V165.864L331.898 161.774H329.445V163.41L325.355 164.228V160.956L330.263 153.595ZM339.259 172.407L338.442 186.311H380.155L378.519 181.404L374.429 173.225L373.611 172.407H339.259Z" fill="#16252F"/>
<path d="M378.519 323.719L385.062 324.537L387.516 329.445L403.874 332.716L407.145 335.17V348.256L402.238 354.8L394.059 361.343L390.787 365.432L389.152 368.704L387.516 376.065L384.244 382.608L380.973 388.334L377.701 389.152L367.886 388.334L360.525 383.426L354.8 380.155L353.982 377.701V368.704L357.253 362.161L361.343 358.889L370.34 356.435H374.429L375.247 357.253H393.241L397.331 353.164L398.966 348.256V343.349L395.695 340.077L381.79 338.442H376.883H374.429L375.247 331.08L377.701 326.991L378.519 323.719Z" fill="#981F2C"/>
<path d="M331.898 306.543H343.349L350.71 307.361L353.164 309.815L352.346 314.722L346.621 322.901L339.259 331.08L335.17 335.988L323.719 341.713L315.54 340.077L303.272 335.17L304.09 328.627L304.907 324.537V317.176L302.454 312.269V310.633L308.997 308.179L321.266 307.361L331.898 306.543Z" fill="#9A1E2C"/>
<path d="M349.074 376.065L352.346 377.701L353.164 385.062L358.889 383.426L363.797 384.244L367.068 387.516L367.886 392.423L359.707 399.784L352.346 404.692L348.256 406.328L336.806 416.142L333.534 418.596H327.809V416.96L324.537 416.142L323.719 412.053L324.537 409.599H322.901L322.083 407.963V396.513L326.173 388.334L329.445 385.062L331.08 384.244L340.895 383.426L344.985 380.972L349.074 376.065Z" fill="#167D4D"/>
<path d="M242.747 201.034L244.383 202.669V230.478L241.111 231.296V232.932H237.839L239.475 235.386L241.111 241.929L243.565 237.021H245.2L247.654 241.111L251.744 243.565L254.197 247.654L255.015 250.926L253.379 254.197L241.111 255.833L239.475 259.923L237.839 262.376H225.571L220.663 258.287L217.392 256.651L210.031 251.744L209.213 250.108V235.386L210.848 232.932H219.027H219.845V231.296L222.299 230.478H241.929L242.747 201.034Z" fill="#147F4D"/>
<path d="M356.435 313.086H360.525L366.25 317.994H376.065L376.883 322.083L374.429 334.352L373.611 349.074L371.976 353.164L368.704 354.8L362.161 353.982L358.889 352.346L360.525 349.074L358.071 350.71H352.346L349.074 345.803H346.621L338.442 335.988L339.259 331.898L348.256 322.901L354.8 314.722L356.435 313.086Z" fill="#09A891"/>
<path d="M191.219 231.296H208.395L219.845 232.114L221.481 232.932V255.833H220.663V233.75H210.848L210.031 235.386V250.108L213.302 253.38L219.845 257.469L223.935 259.923V261.559L237.839 262.377L239.475 259.105L241.111 255.015L246.018 254.197H253.379V250.926H255.015L250.926 243.565L246.018 240.293L245.2 237.021H243.565L242.747 240.293H241.929V234.568L242.747 233.75H264.83L266.466 237.021L265.648 250.926L264.012 254.197L269.738 255.015V255.833L260.741 257.469L242.747 263.194L230.478 264.83H224.753L218.21 262.377L204.305 252.562L196.126 246.836L191.219 238.657V231.296Z" fill="#127F4E"/>
<path d="M289.367 194.49L293.457 195.308L298.364 197.762L299.182 201.034V207.577L301.636 208.395L302.454 202.669L303.272 201.034L308.179 201.851L316.358 205.941L315.54 211.666L311.451 223.117L308.997 233.75L306.543 235.386L289.367 228.024V223.117L292.639 219.845L293.457 216.574L286.096 215.756L278.734 210.848L273.009 210.031L274.645 206.759L287.731 196.126L289.367 194.49Z" fill="#FDDB35"/>
<path d="M220.663 182.222L222.299 184.676L223.935 189.583L241.929 199.398L242.747 201.034V228.842L241.929 230.478H219.845V184.676L220.663 182.222Z" fill="#FDDB35"/>
<path d="M406.328 220.663H407.146L410.417 231.296H419.414L431.683 229.66L443.951 230.478L444.769 231.296L443.951 244.382L441.497 255.833L438.226 255.015L425.139 250.926L424.322 249.29L425.957 246.018L428.411 236.203L420.232 237.021L414.507 237.839L407.146 236.203L403.874 234.568L395.695 232.932V234.568L393.241 233.75L390.787 228.842L385.88 227.206H349.892L348.256 228.842L346.621 225.571L347.439 223.935H387.516L396.513 225.571L404.692 224.753L406.328 220.663Z" fill="#2B4B3E"/>
<path d="M306.543 350.71H313.087L319.63 353.164L322.901 354.799V356.435L319.63 358.071L322.083 361.343L325.355 360.525L326.991 356.435L330.263 357.253L334.352 361.343L338.442 366.25L341.713 373.611V378.519L337.624 382.608L333.534 380.972L331.898 377.701L328.627 378.519L325.355 380.972L323.719 385.062H318.812L316.358 383.426L315.54 377.701L314.722 376.883V371.158L316.358 367.068L308.997 365.432L304.908 360.525L304.09 354.799L306.543 350.71Z" fill="#12804F"/>
<path d="M317.994 209.213H323.719L326.991 210.031V244.383L328.627 247.654L331.898 248.472L332.716 238.657L333.534 211.666H337.624L340.077 214.938L342.531 220.663L347.438 225.571L348.256 229.66L346.621 231.296L341.713 227.207H340.077L338.442 233.75V254.197H336.806V257.469L331.898 259.923L330.262 255.833L329.445 250.108L326.173 248.472L322.083 241.929L319.63 237.839V236.204L316.358 234.568L311.451 235.386L312.269 226.389L317.176 210.031L317.994 209.213Z" fill="#2E433A"/>
<path d="M400.602 271.373L414.507 272.191L420.232 277.099V278.734H421.868L421.05 283.642L418.596 286.096H416.96L415.325 289.367L404.692 299.182L402.238 303.272L403.056 311.451L406.328 328.627V335.17L400.602 332.716L397.331 331.08L403.056 329.444L402.238 324.537L398.149 322.083V320.448L394.059 318.812L389.969 313.904L394.059 310.633L395.695 294.275L398.966 287.731L400.602 277.917V271.373Z" fill="#2B3533"/>
<path d="M393.241 240.293L397.331 248.472L407.145 250.926L420.232 249.29L425.139 245.2L426.775 243.565L425.957 247.654L425.139 250.108L438.226 254.197L441.497 255.833L440.68 263.194L434.954 269.738L430.865 273.009H428.411L424.321 275.463L417.778 272.191V268.102L422.686 262.376L419.414 260.741L416.96 255.015H414.507V259.105L412.053 261.558H405.51L398.148 260.741L391.605 261.558L390.787 258.287L401.42 254.197L402.238 252.562L398.148 251.744L394.877 250.108L392.423 241.111L393.241 240.293Z" fill="#137F4E"/>
<path d="M337.624 333.534L340.077 336.806L347.439 345.802H349.892L352.346 349.892H358.071L361.343 348.256L360.525 351.528L359.707 352.346L364.614 353.982L371.158 353.164L372.794 349.074L373.611 334.352H374.429L375.247 338.441L376.883 337.623L389.152 338.441L397.331 340.077L399.784 343.349L398.966 351.528L395.695 356.435L393.241 358.071H375.247L374.429 357.253H362.979L353.164 356.435L349.074 353.982L343.349 344.985L337.624 337.623V333.534Z" fill="#19814D"/>
<path d="M310.633 203.487L315.54 204.305L318.812 207.577L316.358 214.938L312.269 230.478V234.568L316.358 233.75L320.448 237.839L323.719 243.564L322.901 245.2L316.358 236.203L313.087 235.385L311.451 238.657L308.179 243.564L304.09 260.74V269.737L295.911 274.645L295.093 277.099L292.639 279.552L298.364 280.37L313.087 281.188V284.46H314.722L315.54 289.367L312.269 293.457L308.997 292.639L304.09 291.003L298.364 290.185L295.911 292.639L298.364 295.092L300 300.818L305.725 304.907L328.627 305.725V306.543L320.448 307.361L317.994 308.179L308.997 308.997L301.636 310.633L293.457 298.364L289.367 294.275V278.734L290.185 274.645L294.275 273.009L300 268.92L306.543 242.747L308.997 237.839L300 233.75L296.728 232.114L299.182 231.296L307.361 234.568L309.815 227.206L312.269 217.392L316.358 205.941L310.633 204.305V203.487Z" fill="#1C844F"/>
<path d="M368.704 388.333H380.155L377.701 395.695L371.976 404.692L365.432 412.053L358.889 417.778L350.71 424.321L344.167 426.775H330.263L327.809 424.321L328.627 421.868L335.988 420.232H340.895L342.531 415.324L344.985 414.506V412.053L350.71 408.781L356.435 407.963L357.253 405.509H358.889L360.525 401.42L367.068 395.695L368.704 392.423V388.333Z" fill="#2B3733"/>
<path d="M414.507 254.197L417.778 255.015L421.05 261.559L422.686 262.376L421.05 265.648L418.596 268.102L417.778 272.191L421.868 273.827L424.321 274.645L428.411 272.191H430.865L429.229 275.463L422.686 281.188L421.868 278.735H420.232L414.507 273.009L401.42 272.191V279.552L399.784 287.731L396.513 294.275L395.695 292.639L398.149 286.096L398.966 279.552L397.331 273.827L391.605 270.555H384.244L372.793 273.827L366.25 276.281V271.373L380.973 266.466L384.244 262.376L387.516 259.105V263.194L412.053 260.741L413.689 257.469L414.507 254.197Z" fill="#2E3533"/>
<path d="M286.914 188.765L288.549 192.037L295.093 193.673L304.907 199.398L307.361 201.034H303.272L301.636 208.395L298.364 207.577V200.216L297.546 197.762L291.821 195.308L288.549 196.126L282.006 201.852L273.827 208.395L273.009 210.031H278.735L286.096 214.938L293.457 216.574L292.639 220.663L288.549 221.481L287.732 223.935L286.914 219.028L279.552 217.392L285.278 219.845L286.096 220.663V225.571L283.642 228.024L273.827 231.296H269.738V212.484L268.92 230.478H268.102L267.284 210.848L262.376 210.031L260.741 209.213V207.577L259.105 206.759H268.102L277.099 200.216L282.824 196.126H284.46L285.278 193.673H286.914V188.765Z" fill="#723B36"/>
<path d="M340.077 226.389L343.349 227.207L346.621 230.478L348.256 229.66V240.293L347.438 238.657H345.803L344.985 249.29V255.015V255.833H345.803V259.923L348.256 259.105L351.528 262.376L356.435 264.012V264.83L335.17 268.92L330.262 270.556L327.809 269.738L328.627 267.284V253.38L323.719 247.654L324.537 245.2L327.809 249.29L330.262 251.744L331.898 259.105L335.988 256.651L337.624 251.744V233.75L339.259 227.207L340.077 226.389Z" fill="#137F4E"/>
<path d="M341.713 349.074L345.803 350.71L348.256 355.617L353.982 358.071H361.343V359.707L357.253 363.796L354.8 368.704L353.982 375.247L352.346 373.611L348.256 374.429L346.621 376.883H343.349L340.077 367.886V363.796L336.806 362.161L334.352 358.889V357.253L331.898 356.435L332.716 352.346L335.17 350.71L341.713 349.074Z" fill="#2C3533"/>
<path d="M191.219 231.296H208.395L219.845 232.114L221.481 232.932V255.833H220.663V233.75H210.848L210.031 235.386V250.108L214.938 255.015L209.213 255.833L196.944 247.654L191.219 238.657V231.296Z" fill="#97202C"/>
<path d="M284.46 236.203L290.185 237.021L295.093 240.293L297.546 244.382L296.728 250.926L291.821 256.651L286.914 258.287V256.651L280.37 253.379L284.46 257.469L280.37 256.651L276.281 252.561L275.463 246.018L277.917 241.111L284.46 236.203Z" fill="#12AB96"/>
<path d="M432.5 230.478H443.951L444.769 231.296L443.951 244.383L442.315 253.379L434.954 252.562L430.047 250.108L429.229 249.29L430.047 243.565L431.683 237.021L432.5 230.478Z" fill="#97202D"/>
<path d="M367.068 387.516L369.522 389.152L368.704 394.877L364.615 398.966H362.979L362.161 401.42H360.525L358.889 405.51L356.435 407.963L348.256 410.417L344.985 412.053V414.507L343.349 415.324L340.895 420.232L331.898 421.868H328.627L329.445 424.321L326.991 425.139L322.084 421.05L318.812 415.324V413.689H320.448L321.266 399.784H322.084L322.901 409.599H324.537L325.355 416.142L327.809 416.96V418.596L335.17 416.96L344.985 407.963L349.074 404.692L354.8 402.238L362.161 396.513L367.068 392.423V387.516Z" fill="#37423A"/>
<path d="M219.028 162.592H219.845L221.481 178.132L220.663 181.404L219.028 182.222L196.944 183.04L197.762 179.768L211.666 168.317L219.028 162.592Z" fill="#16252F"/>
<path d="M405.51 273.009H415.325L420.232 277.099V278.734H421.868L421.05 283.642L418.596 286.096H416.96L415.325 289.367L404.692 299.182L403.056 301.636L399.784 300.818L398.149 300V295.093L403.874 291.003H405.51L406.328 287.731H407.963V286.096L411.235 285.278V283.642L412.871 282.824L414.507 278.734L405.51 274.645V273.009Z" fill="#15272F"/>
<path d="M329.445 376.883L331.898 377.701L335.988 381.79L341.713 380.155L342.531 378.519L344.167 379.337L343.349 383.426L340.895 384.244L331.08 385.062L327.809 385.88L326.173 389.97L322.901 396.513L321.266 409.599L320.448 413.689H318.812L317.176 396.513L314.722 388.334V385.88H322.901L325.355 380.155L329.445 376.883Z" fill="#2B3835"/>
<path d="M253.379 253.38L259.923 254.197L260.741 257.469L242.747 263.194L230.478 264.83H224.753L218.21 262.376L210.031 256.651L211.666 255.015L217.392 255.833L221.481 258.287L223.935 259.923V261.559L237.839 262.376L239.475 259.105L241.111 255.015L253.379 253.38Z" fill="#293D36"/>
<path d="M270.555 211.666H273.009L275.463 215.756L285.278 219.845L286.096 220.663V225.571L283.642 228.024L273.827 231.296H269.738V213.302L270.555 211.666Z" fill="#FDDB35"/>
<path d="M245.201 202.669L252.562 205.123L262.376 209.213L268.102 210.031V223.935L267.284 231.296L266.466 232.114H258.287L262.376 224.753V214.938H260.741V213.302L255.833 211.666V210.031L250.108 208.395L243.565 206.759V203.487L245.201 202.669Z" fill="#2B3433"/>
<path d="M303.272 335.17L312.269 337.624L317.994 340.077L323.719 340.895L335.988 335.17L335.17 338.441L330.263 342.531H328.627L326.991 345.803L325.355 346.62H319.63L313.904 342.531H305.725L304.908 350.71L300.818 351.528V345.803L303.272 335.17Z" fill="#2B3633"/>
<path d="M310.633 203.487L315.54 204.305L318.812 207.577L316.358 214.938L312.269 230.478V234.568L316.358 233.75L320.448 237.839L323.719 243.564L322.901 245.2L316.358 236.203L313.086 235.385L311.451 238.657L308.179 243.564L304.09 260.74V269.737L298.364 273.009L296.728 272.191L300 268.92L306.543 242.747L308.997 237.839L300 233.75L296.728 232.114L299.182 231.296L307.361 234.568L309.815 227.206L312.269 217.392L316.358 205.941L310.633 204.305V203.487Z" fill="#177B4C"/>
<path d="M425.957 253.38L431.683 254.197L435.772 256.651L434.954 260.741L432.5 266.466L427.593 270.556L424.321 271.373L421.05 269.738L422.686 265.648L424.321 264.012H427.593V262.376L422.686 261.559L421.05 259.923V255.833L422.686 254.197L425.957 253.38Z" fill="#09A892"/>
<path d="M320.448 213.302L323.719 214.12V215.756L326.173 214.938V232.932L324.537 232.114L318.812 232.932L316.358 228.842V218.21L318.812 214.12L320.448 213.302Z" fill="#137F4E"/>
<path d="M327.809 210.849L331.08 211.666L331.898 212.484V245.2H328.627L326.991 233.75V213.302L327.809 210.849Z" fill="#137F4E"/>
<path d="M362.161 304.907H363.797L362.979 310.633L357.253 312.269L348.256 323.719L339.259 332.716V330.263L347.438 321.266L352.346 313.087V308.179L343.349 307.361H331.898L321.266 308.179L320.448 306.543L328.627 305.725H358.071L362.161 304.907Z" fill="#2C4A3C"/>
<path d="M351.528 232.114H363.797L367.886 233.75L371.158 237.021V238.657L367.068 240.293H353.164L349.892 237.839V233.75L351.528 232.114Z" fill="#FDFDFD"/>
<path d="M340.895 277.099L346.621 277.917L353.164 278.734L357.253 281.188V285.278L353.982 286.096L349.892 282.006L348.256 281.188H343.349L340.895 285.278L340.077 286.913L331.898 288.549H328.627V280.37L335.17 281.188L340.077 279.552L340.895 277.099Z" fill="#137F4E"/>
<path d="M243.565 237.021H245.2L247.654 241.111L251.744 243.565L254.197 247.654L255.015 250.926L252.562 253.379H243.565L242.747 249.29V239.475L243.565 237.021Z" fill="#11A98E"/>
<path d="M286.914 188.765L288.549 192.037L295.093 193.673L304.907 199.398L307.361 201.034H303.272L301.636 208.395L298.364 207.577V200.216L297.546 197.762L291.821 195.308L288.549 196.126L282.006 201.852L277.099 205.941L275.463 205.123L280.37 200.216V197.762L284.46 196.126L285.278 193.673H286.914V188.765Z" fill="#8A2930"/>
<path d="M283.642 241.111H291.003L292.639 242.747L291.821 248.472L290.185 252.561L288.549 254.197L284.46 253.379L280.37 246.836L281.188 242.747L283.642 241.111Z" fill="#193735"/>
<path d="M302.454 157.685H311.451L317.176 166.682L322.901 167.5V169.953L321.266 171.589L314.722 170.771L313.904 168.318L311.451 167.5L310.633 164.228L302.454 161.774L301.636 158.503L302.454 157.685Z" fill="#15262F"/>
<path d="M387.516 316.358L391.605 317.176V318.812H393.241V320.448L398.149 321.265L400.602 323.719V329.445H391.605L389.152 326.991L387.516 316.358Z" fill="#09A892"/>
<path d="M402.238 311.451H403.056L406.328 328.627V335.17L400.602 332.716L397.331 331.08L403.056 329.444L402.238 324.537L398.149 322.083V320.448L394.059 318.812L393.241 317.176L396.513 316.358L397.331 314.722L402.238 313.904V311.451Z" fill="#294F40"/>
<path d="M407.963 263.194L412.871 264.83L414.507 266.466L413.689 269.737L410.417 271.373L398.966 270.555L397.331 268.92V265.648L400.602 264.83L405.51 264.012L407.963 263.194Z" fill="#9B1E2C"/>
<path d="M360.525 410.417H362.161L362.979 413.689L356.435 420.232L350.71 424.321H345.803L346.621 421.05L350.71 416.96L353.982 412.871L360.525 410.417Z" fill="#162830"/>
<path d="M412.871 264.83L420.232 265.648L418.596 268.102L417.778 272.191L421.868 273.827L424.321 274.645L428.411 272.191H430.865L429.229 275.463L422.686 281.188L421.868 278.734H420.232L414.507 273.009L404.692 272.191V271.373L412.053 269.738L413.689 268.92L412.871 264.83Z" fill="#2B413A"/>
<path d="M275.463 210.031L280.37 210.848L286.096 214.938L293.457 216.574L292.639 220.663L288.549 221.481L287.732 223.935L286.914 219.027L277.917 216.574L273.827 214.938L274.645 210.848L275.463 210.031Z" fill="#803032"/>
<path d="M340.077 370.34H341.713L343.349 373.611V376.883H346.621L348.256 373.611L352.346 372.794L355.617 380.155L360.525 382.608L358.889 384.244L353.164 385.88L352.346 385.062L351.528 377.701H348.256L344.167 382.608L343.349 379.337L342.531 380.155L339.259 381.791L340.895 378.519V373.611L340.077 370.34Z" fill="#2E423A"/>
<path d="M211.666 255.015L217.392 255.833L221.481 258.287L223.935 259.923V261.558L237.839 262.376L238.657 259.923L239.475 261.558L238.657 264.012L224.753 264.83L218.21 262.376L210.031 256.651L211.666 255.015Z" fill="#2D4D3F"/>
<path d="M269.738 211.666L270.556 213.302L269.738 231.296L282.006 228.024L285.278 227.207V220.663L275.463 216.574L277.917 215.756L286.914 219.027L288.549 221.481L291.003 220.663L289.367 228.024L287.732 225.571L283.642 229.66L273.009 233.75H268.92L268.102 230.478L268.92 212.484L269.738 211.666Z" fill="#137F4E"/>
<path d="M379.337 232.114H388.334L389.152 232.932V237.839L387.516 239.475H377.701L376.883 236.203L379.337 232.114Z" fill="#FDFDFD"/>
<path d="M327.809 358.889L331.08 360.525L336.806 367.886L337.624 371.976L334.352 372.793L328.627 367.886L325.355 365.432L326.173 361.343L327.809 358.889Z" fill="#09A892"/>
<path d="M283.642 235.385H289.367L295.911 239.475L297.546 241.929L296.728 244.382L293.457 239.475L288.549 237.021L282.824 237.839L277.917 241.929L276.281 246.018L277.099 252.561L282.006 256.651L288.549 257.469L293.457 254.197L295.911 250.926L297.546 248.472L296.728 253.379L292.639 257.469L290.185 259.105H283.642L277.917 256.651L275.463 253.379L274.645 250.926V244.382L277.917 239.475L283.642 235.385Z" fill="#137F4E"/>
<path d="M357.253 334.352H360.525L359.707 341.713L358.071 346.621H353.982L352.346 344.985V340.077L355.618 335.17L357.253 334.352Z" fill="#157A4C"/>
<path d="M385.88 282.006L389.152 283.642L393.241 286.096L392.423 289.367L387.516 292.639L383.426 291.821L380.973 289.367L378.519 288.549L379.337 286.096L385.062 286.914L385.88 283.642V282.006Z" fill="#2D3F38"/>
<path d="M395.695 264.83L398.966 265.648H397.331L398.966 269.738L404.692 270.555L401.42 273.009V279.552L399.784 287.731L396.513 294.275L395.695 292.639L398.149 286.096L398.966 279.552L397.331 273.827L393.241 271.373L394.877 269.738L395.695 264.83Z" fill="#2F443B"/>
<path d="M346.621 277.917L353.164 278.735L357.253 281.188V285.278L353.982 286.096L349.892 282.006L348.256 281.188H343.349L340.895 285.278H337.624L338.442 282.006L342.531 278.735L346.621 277.917Z" fill="#483B37"/>
<path d="M317.176 282.824H322.083L323.719 284.46V286.914H322.083L323.719 291.003L322.901 292.639H316.358L315.54 289.367L316.358 286.914V284.46L317.176 282.824Z" fill="#FDDB35"/>
<path d="M203.487 174.861L205.123 175.679L201.852 179.768L201.034 181.404L208.395 179.768L220.663 178.95V181.404L219.028 182.222L196.944 183.04L197.762 179.768L203.487 174.861Z" fill="#263B36"/>
<path d="M287.731 224.753L288.549 228.024L292.639 228.842L296.728 230.478V232.114L292.639 231.296L291.003 230.478V232.114H293.457V233.75L285.278 232.932V234.568L281.188 233.75L280.37 232.114H282.824L283.642 228.842L287.731 224.753Z" fill="#453634"/>
<path d="M253.379 253.38L259.923 254.197L260.741 257.469L255.833 258.287L250.926 255.833L250.108 257.469L240.293 259.105L241.111 255.015L253.379 253.38Z" fill="#2D463B"/>
<path d="M273.009 140.509H281.188L286.096 142.963L285.278 144.598H262.376L255.833 145.416L256.651 143.78L273.009 140.509Z" fill="#137F4E"/>
<path d="M317.994 209.213H323.719L326.991 210.031L325.355 215.756H323.719L322.901 214.12H318.812L317.176 218.21L315.54 219.028L316.358 212.484L317.994 209.213Z" fill="#2F443B"/>
<path d="M392.423 341.713H396.513V350.71L394.059 354.8L391.605 355.618L389.969 353.982L393.241 347.438L390.787 343.349L392.423 341.713Z" fill="#FDDB35"/>
<path d="M308.179 240.293L308.997 241.929L305.725 255.015L304.09 260.741V269.738L298.364 273.009L296.728 272.191L300 268.92L306.543 242.747L308.179 240.293Z" fill="#137F4E"/>
<path d="M308.997 368.704L313.904 370.34V377.701L313.087 380.155H310.633L308.179 375.247L307.361 370.34L308.997 368.704Z" fill="#2A3A35"/>
<path d="M368.704 228.025H377.701L376.883 229.66H375.247L376.065 236.204L371.976 237.021L370.34 235.386L369.522 229.66L368.704 228.025Z" fill="#187149"/>
<path d="M376.065 268.102L378.519 268.92L377.701 272.191L366.25 276.281V271.373L376.065 268.102Z" fill="#2F443B"/>
<path d="M353.982 362.161L357.253 362.979L353.982 371.158L349.892 369.522L347.438 363.796L353.982 362.161Z" fill="#15222E"/>
<path d="M406.328 220.663H407.145L407.963 228.024L406.328 228.842L391.605 228.024L390.787 225.571L404.692 224.753L406.328 220.663Z" fill="#213032"/>
<path d="M242.747 201.034L244.383 202.669V230.478L241.111 231.296L241.929 228.842L242.747 201.034Z" fill="#137E4D"/>
<path d="M321.266 395.695H322.083L321.266 412.053L320.448 413.689H318.812L317.994 405.51V398.149H319.63L321.266 395.695Z" fill="#293C35"/>
<path d="M313.904 376.883L316.358 377.701L317.176 383.426L322.901 384.244V386.698H313.904L311.451 380.155H313.086L312.269 377.701L313.904 376.883Z" fill="#2C483D"/>
<path d="M384.244 345.802H387.516L389.152 348.256L388.334 353.982L385.88 354.799L384.244 353.982L382.608 349.892L380.155 347.438H384.244V345.802Z" fill="#9B1E2C"/>
<path d="M191.219 223.935H192.855L194.49 227.206V229.66L214.938 230.478L217.392 232.114L191.219 231.296V223.935Z" fill="#2F443B"/>
<path d="M412.871 264.83L420.232 265.648L418.596 268.102L417.778 272.191L419.414 273.009L404.692 272.191V271.373L412.053 269.738L413.689 268.92L412.871 264.83Z" fill="#2F443B"/>
<path d="M245.201 243.565L249.29 245.201L251.744 248.472L250.926 250.926H245.201L243.565 248.472L244.383 244.383L245.201 243.565Z" fill="#FDFDFD"/>
<path d="M352.346 392.423L353.982 393.241L356.435 395.695L355.617 398.966L353.982 400.602H350.71L349.074 397.331L348.256 394.059L352.346 392.423Z" fill="#09A892"/>
<path d="M414.507 254.197L417.778 255.015L421.05 261.559L422.686 262.376L421.05 265.648L420.232 262.376H418.596L417.778 259.105L414.507 262.376H409.599L413.689 259.105V255.015L414.507 254.197Z" fill="#2E3F38"/>
<path d="M345.803 238.657H347.438L349.074 245.2V251.744L344.985 250.108L344.167 246.018L345.803 238.657Z" fill="#2C3834"/>
<path d="M398.149 231.296H403.056L410.417 235.386L420.232 236.204L416.96 237.839L408.781 237.021L403.874 234.568L395.695 232.932V234.568L393.241 233.75V232.114L398.149 231.296Z" fill="#137F4E"/>
<path d="M298.364 304.089L302.454 304.907L304.907 306.543L317.994 307.361V308.179L308.997 308.997L301.636 310.633L298.364 305.725V304.089Z" fill="#2C4A3E"/>
<path d="M313.086 353.982L316.358 354.799V359.707L313.086 361.343L309.815 360.525L308.997 358.071L309.815 356.435H311.451V354.799L313.086 353.982Z" fill="#09A892"/>
<path d="M316.358 390.787H322.901L321.266 396.513L318.812 398.966L316.358 393.241V390.787Z" fill="#15272F"/>
<path d="M399.784 322.901L403.056 324.537L403.874 329.444L400.602 331.08H389.969L392.423 329.444H400.602L399.784 322.901Z" fill="#15794C"/>
<path d="M285.278 193.673L286.096 196.126H288.549L282.006 201.852L277.099 205.941L275.463 205.123L280.37 200.216V197.762L284.46 196.126L285.278 193.673Z" fill="#137F4E"/>
<path d="M286.914 188.765L288.549 192.037L295.093 193.673L297.546 195.308V196.944L289.367 195.308L285.278 196.944L286.914 188.765Z" fill="#862C31"/>
<path d="M219.845 178.95L220.663 181.404L219.028 182.222H207.577L208.395 179.768L219.845 178.95Z" fill="#303D37"/>
<path d="M219.845 231.296H222.299V232.932H225.571L223.117 240.293L222.299 247.654H221.481V232.932H219.845V231.296Z" fill="#35443A"/>
<path d="M403.874 326.991H405.51L406.328 328.627V335.17L400.602 332.716L397.331 331.08L403.056 329.444L403.874 326.991Z" fill="#2C493C"/>
<path d="M351.528 317.176V319.63L342.531 329.445L338.442 332.716L340.077 329.445L347.438 321.266L351.528 317.176Z" fill="#1D6947"/>
<path d="M277.917 246.836L281.188 248.472L283.642 254.197H279.552L277.099 251.744V247.654L277.917 246.836Z" fill="#FDFDFD"/>
<path d="M377.701 340.895L383.426 341.713V344.167L380.973 345.803H376.883L376.065 342.531L377.701 340.895Z" fill="#FDDB35"/>
<path d="M380.973 277.099H385.88V280.37L378.519 282.006H376.883L375.247 285.278L376.065 281.188L380.155 278.734L380.973 277.099Z" fill="#09A892"/>
<path d="M402.238 311.451H403.056L403.874 322.083L400.602 321.265L399.784 317.176L402.238 311.451Z" fill="#26473C"/>
<path d="M318.812 246.018L320.448 247.654V253.379L317.994 255.833H317.176V247.654L318.812 246.018Z" fill="#FDFDFD"/>
<path d="M331.08 408.781L334.352 409.599L336.806 412.871L334.352 414.506L331.08 413.689L330.262 409.599L331.08 408.781Z" fill="#FDDB35"/>
<path d="M416.142 259.105H417.778L418.596 262.376H420.232V264.83L413.689 264.012L412.871 262.376L416.142 259.105Z" fill="#15222E"/>
<path d="M296.728 248.472L297.546 251.744L294.275 256.651L290.185 259.105H283.642V257.469H288.549L293.457 254.197L295.911 250.926L296.728 248.472Z" fill="#128151"/>
<path d="M310.633 203.487L315.54 204.305L318.812 207.577L316.358 214.938H313.904L316.358 205.941L310.633 204.305V203.487Z" fill="#1A794C"/>
<path d="M405.51 261.558L412.871 262.376L420.232 264.83L417.778 266.466L407.963 264.012H405.51V261.558Z" fill="#393735"/>
<path d="M342.531 278.734H346.621L342.531 282.006L340.895 285.278H337.624L338.442 282.006L342.531 278.734Z" fill="#2F443B"/>
<path d="M369.522 402.238H371.976L371.158 405.51L367.068 409.599L365.432 405.51L369.522 403.874V402.238Z" fill="#152E32"/>
<path d="M308.179 285.278L312.269 286.096V290.185L309.815 291.003L307.361 288.549L308.179 285.278Z" fill="#2E4139"/>
<path d="M191.219 223.935H192.855L195.308 231.296H191.219V223.935Z" fill="#2E4139"/>
<path d="M291.003 241.929L292.639 242.747L291.821 248.472L290.185 252.562H289.367V245.2H291.003V241.929Z" fill="#205F43"/>
<path d="M298.364 201.034L300.818 203.487L303.272 201.034L301.636 208.395L298.364 207.577V201.034Z" fill="#137F4E"/>
<path d="M407.146 264.83H411.235L412.053 268.92L407.146 268.102V264.83Z" fill="#137F4E"/>
<path d="M257.469 208.395L262.376 209.213L267.284 210.848V213.302L259.923 210.848L257.469 208.395Z" fill="#15222E"/>
<path d="M319.63 204.305L324.537 205.123L326.173 205.941V208.395L319.63 207.577L318.812 205.123L319.63 204.305Z" fill="#15222E"/>
<path d="M219.028 168.317H220.663V174.861L217.392 174.043L216.574 170.771L219.028 168.317Z" fill="#2C3533"/>
<path d="M280.37 138.873H291.003L288.549 141.327L287.731 145.416L286.096 142.145V139.691H280.37V138.873Z" fill="#216144"/>
</svg>
